<svg xmlns="http://www.w3.org/2000/svg" xmlns:xlink="http://www.w3.org/1999/xlink" xmlns:inkscape="http://www.inkscape.org/namespaces/inkscape" version="1.1" width="408.3271" height="691.7574" viewBox="0 0 408.3271 691.7574">
<defs>
<clipPath id="clip_0">
<path transform="matrix(1,0,0,-1,0,1191.12)" d="M0 499.3626H408.3271V1191.12H0Z" clip-rule="evenodd"/>
</clipPath>
<clipPath id="clip_1">
<path transform="matrix(1,0,0,-1,0,1191.12)" d="M0 1191.12H1681.922V.2372416H0Z" clip-rule="evenodd"/>
</clipPath>
<clipPath id="clip_2">
<path transform="matrix(1,0,0,-1,0,1191.12)" d="M0 0H1681.92V1191.12H0Z"/>
</clipPath>
<clipPath id="clip_3">
<path transform="matrix(1,0,0,-1,0,1191.12)" d="M18.75 1178.37H1663.5V13.62005H18.75Z" clip-rule="evenodd"/>
</clipPath>
<clipPath id="clip_4">
<path transform="matrix(1,0,0,-1,0,1191.12)" d="M0 0H1681.92V1191.12H0Z"/>
</clipPath>
</defs>
<g clip-path="url(#clip_0)">
<g clip-path="url(#clip_1)">
<g clip-path="url(#clip_2)">
<path transform="matrix(1,0,0,-1,0,1191.12)" d="M0 1191.12H1682.25V.1200496H0Z" fill="#ffffff"/>
</g>
</g>
<g clip-path="url(#clip_3)">
<g clip-path="url(#clip_4)">
<path transform="matrix(1,0,0,-1,0,1191.12)" d="M54.95158 1087.942H349.0962C350.1536 1087.942 351.2084 1087.89 352.2606 1087.786 353.3129 1087.683 354.3575 1087.528 355.3945 1087.321 356.4316 1087.115 357.456 1086.859 358.4678 1086.552 359.4796 1086.245 360.474 1085.889 361.4508 1085.484 362.4277 1085.08 363.3824 1084.628 364.3149 1084.13 365.2474 1083.631 366.1532 1083.088 367.0323 1082.501 367.9115 1081.913 368.7597 1081.284 369.577 1080.614 370.3944 1079.943 371.1769 1079.234 371.9245 1078.486 372.6722 1077.738 373.3814 1076.956 374.0522 1076.138 374.723 1075.321 375.3521 1074.473 375.9395 1073.594 376.5269 1072.715 377.0699 1071.809 377.5683 1070.876 378.0667 1069.944 378.5182 1068.989 378.9228 1068.012 379.3275 1067.035 379.6833 1066.041 379.9902 1065.029 380.2971 1064.017 380.5537 1062.993 380.76 1061.956 380.9663 1060.919 381.1213 1059.874 381.2249 1058.822 381.3286 1057.77 381.3804 1056.715 381.3804 1055.658V641.942C381.3804 640.8846 381.3286 639.8298 381.2249 638.7776 381.1213 637.7253 380.9663 636.6807 380.76 635.6437 380.5537 634.6066 380.2971 633.5822 379.9902 632.5704 379.6833 631.5586 379.3275 630.5643 378.9228 629.5874 378.5182 628.6106 378.0667 627.6559 377.5683 626.7234 377.0699 625.7909 376.5269 624.885 375.9395 624.0059 375.352 623.1267 374.723 622.2785 374.0522 621.4612 373.3814 620.6438 372.6722 619.8613 371.9245 619.1136 371.1769 618.3659 370.3944 617.6567 369.577 616.986 368.7597 616.3152 367.9115 615.6861 367.0323 615.0987 366.1532 614.5112 365.2474 613.9683 364.3149 613.4699 363.3824 612.9715 362.4277 612.5199 361.4508 612.1153 360.474 611.7106 359.4796 611.3549 358.4678 611.048 357.456 610.741 356.4316 610.4844 355.3945 610.2782 354.3575 610.0719 353.3129 609.9169 352.2606 609.8132 351.2084 609.7096 350.1536 609.6578 349.0962 609.6578H54.95158C53.89424 609.6578 52.83944 609.7096 51.78718 609.8132 50.73493 609.9169 49.69028 610.0719 48.65325 610.2782 47.61622 610.4844 46.5918 610.741 45.57998 611.0479 44.56816 611.3548 43.57383 611.7106 42.59696 612.1153 41.6201 612.5199 40.66543 612.9715 39.73293 613.4699 38.80044 613.9683 37.89461 614.5112 37.01546 615.0987 36.13631 615.6861 35.28806 616.3152 34.47072 616.986 33.65339 617.6567 32.87089 618.3659 32.12323 619.1136 31.37557 619.8613 30.66636 620.6438 29.99558 621.4611 29.32481 622.2784 28.69571 623.1267 28.10828 624.0059 27.52085 624.885 26.97792 625.7909 26.47949 626.7234 25.98106 627.6559 25.52953 628.6106 25.1249 629.5874 24.72027 630.5643 24.36449 631.5586 24.05756 632.5704 23.75063 633.5822 23.49402 634.6066 23.28775 635.6437 23.08147 636.6807 22.92651 637.7253 22.82287 638.7776 22.71923 639.8298 22.66742 640.8846 22.66742 641.942V1055.658C22.66742 1056.715 22.71923 1057.77 22.82287 1058.822 22.92651 1059.874 23.08147 1060.919 23.28775 1061.956 23.49402 1062.993 23.75063 1064.017 24.05756 1065.029 24.36449 1066.041 24.72027 1067.035 25.1249 1068.012 25.52953 1068.989 25.98106 1069.944 26.47949 1070.876 26.97792 1071.809 27.52085 1072.715 28.10828 1073.594 28.69571 1074.473 29.32481 1075.321 29.99558 1076.138 30.66636 1076.956 31.37557 1077.738 32.12323 1078.486 32.87089 1079.234 33.65339 1079.943 34.47072 1080.614 35.28806 1081.284 36.13631 1081.913 37.01546 1082.501 37.89461 1083.088 38.80044 1083.631 39.73293 1084.13 40.66543 1084.628 41.6201 1085.08 42.59696 1085.484 43.57383 1085.889 44.56816 1086.245 45.57998 1086.552 46.5918 1086.859 47.61622 1087.115 48.65325 1087.321 49.69028 1087.528 50.73493 1087.683 51.78718 1087.786 52.83944 1087.89 53.89424 1087.942 54.95158 1087.942Z" fill="#f5f5f5"/>
<path transform="matrix(.7033588,0,0,.7033588,19.85398,13.852051)" stroke-width="5" stroke-linecap="butt" stroke-miterlimit="4" stroke-linejoin="miter" fill="none" stroke="#000000" d="M49.9 127H468.1C469.6033 127 471.103 127.0737 472.599 127.221 474.095 127.3684 475.5802 127.5887 477.0546 127.882 478.529 128.1752 479.9855 128.5401 481.424 128.9764 482.8626 129.4128 484.2763 129.9186 485.6651 130.4939 487.054 131.0692 488.4113 131.7112 489.7371 132.4198 491.0629 133.1284 492.3507 133.9003 493.6006 134.7355 494.8506 135.5707 496.0566 136.4651 497.2186 137.4188 498.3807 138.3725 499.4932 139.3808 500.5562 140.4438 501.6191 141.5068 502.6275 142.6193 503.5811 143.7813 504.5348 144.9434 505.4292 146.1494 506.2644 147.3993 507.0996 148.6492 507.8715 149.9371 508.5801 151.2629 509.2888 152.5886 509.9307 153.946 510.506 155.3348 511.0813 156.7236 511.5871 158.1374 512.0235 159.5759 512.4599 161.0145 512.8247 162.4709 513.118 163.9453 513.4113 165.4197 513.6317 166.905 513.779 168.401 513.9263 169.897 514 171.3967 514 172.9V761.1C514 762.6033 513.9263 764.1029 513.7789 765.5989 513.6317 767.095 513.4113 768.5802 513.118 770.0546 512.8247 771.529 512.4599 772.9855 512.0236 774.424 511.5872 775.8625 511.0813 777.2762 510.506 778.665 509.9307 780.0539 509.2888 781.4112 508.5802 782.737 507.8715 784.0628 507.0996 785.3506 506.2644 786.6005 505.4292 787.8505 504.5348 789.0565 503.5811 790.2186 502.6275 791.3807 501.6191 792.4932 500.5562 793.5562 499.4932 794.6192 498.3807 795.6275 497.2186 796.5812 496.0566 797.5349 494.8506 798.4293 493.6006 799.2644 492.3507 800.0996 491.0629 800.8715 489.7371 801.5801 488.4113 802.2888 487.054 802.9307 485.6651 803.506 484.2763 804.0814 482.8626 804.5872 481.424 805.0235 479.9855 805.4599 478.529 805.8247 477.0546 806.118 475.5802 806.4112 474.095 806.6316 472.599 806.779 471.103 806.9263 469.6033 807 468.1 807H49.9C48.39672 807 46.89706 806.9263 45.40101 806.779 43.90497 806.6316 42.41975 806.4112 40.94535 806.1179 39.47096 805.8247 38.01448 805.4599 36.57593 805.0236 35.13738 804.5872 33.72368 804.0814 32.33483 803.506 30.94598 802.9307 29.58866 802.2888 28.26289 801.5802 26.93711 800.8715 25.64926 800.0996 24.39933 799.2644 23.14939 798.4293 21.9434 797.5349 20.78135 796.5811 19.6193 795.6275 18.50678 794.6192 17.4438 793.5562 16.38082 792.4932 15.37249 791.3807 14.41882 790.2186 13.46515 789.0566 12.57072 787.8505 11.73554 786.6005 10.90037 785.3506 10.12846 784.0628 9.419814 782.737 8.711172 781.4112 8.06921 780.0539 7.493929 778.665 6.918648 777.2762 6.412818 775.8625 5.976438 774.424 5.540059 772.9855 5.175231 771.529 4.881955 770.0546 4.58868 768.5802 4.368368 767.095 4.221021 765.5989 4.073674 764.1029 4 762.6033 4 761.1V172.9C4 171.3967 4.073674 169.897 4.221021 168.401 4.368368 166.905 4.58868 165.4197 4.881955 163.9453 5.175231 162.4709 5.540059 161.0145 5.976439 159.5759 6.412818 158.1374 6.918648 156.7236 7.493929 155.3348 8.06921 153.946 8.711172 152.5886 9.419814 151.2629 10.12846 149.9371 10.90037 148.6492 11.73554 147.3993 12.57072 146.1494 13.46515 144.9434 14.41882 143.7813 15.37249 142.6193 16.38082 141.5068 17.4438 140.4438 18.50678 139.3808 19.6193 138.3725 20.78135 137.4188 21.9434 136.4651 23.14939 135.5707 24.39932 134.7355 25.64926 133.9003 26.93711 133.1284 28.26289 132.4198 29.58866 131.7112 30.94598 131.0692 32.33483 130.4939 33.72368 129.9186 35.13738 129.4128 36.57593 128.9764 38.01448 128.5401 39.47095 128.1752 40.94535 127.882 42.41975 127.5887 43.90497 127.3684 45.40101 127.221 46.89706 127.0737 48.39672 127 49.9 127Z"/>
<path transform="matrix(1,0,0,-1,0,1191.12)" d="M151.8041 1066.841H294.4452C294.781 1066.841 295.104 1066.777 295.4142 1066.648 295.7244 1066.52 295.9982 1066.337 296.2357 1066.099 296.4731 1065.862 296.6561 1065.588 296.7846 1065.278 296.9131 1064.968 296.9773 1064.645 296.9773 1064.309V1041.239C296.9773 1040.903 296.9131 1040.58 296.7846 1040.27 296.6561 1039.96 296.4731 1039.686 296.2357 1039.448 295.9982 1039.211 295.7244 1039.028 295.4142 1038.899 295.104 1038.771 294.781 1038.707 294.4452 1038.707H151.8041C151.4683 1038.707 151.1453 1038.771 150.8351 1038.899 150.5249 1039.028 150.251 1039.211 150.0136 1039.448 149.7762 1039.686 149.5932 1039.96 149.4647 1040.27 149.3362 1040.58 149.272 1040.903 149.272 1041.239V1064.309C149.272 1064.645 149.3362 1064.968 149.4647 1065.278 149.5932 1065.588 149.7762 1065.862 150.0136 1066.099 150.251 1066.337 150.5249 1066.52 150.8351 1066.648 151.1453 1066.777 151.4683 1066.841 151.8041 1066.841Z" fill="#f2f4c1"/>
<path transform="matrix(.7033588,0,0,.7033588,19.85398,13.852051)" stroke-width="5" stroke-linecap="butt" stroke-miterlimit="4" stroke-linejoin="miter" fill="none" stroke="#000000" d="M187.6 157H390.4C390.8774 157 391.3366 157.0913 391.7776 157.274 392.2186 157.4567 392.6079 157.7168 392.9456 158.0544 393.2831 158.392 393.5432 158.7813 393.7259 159.2223 393.9086 159.6634 394 160.1226 394 160.6V193.4C394 193.8774 393.9086 194.3366 393.7259 194.7776 393.5432 195.2187 393.2831 195.608 392.9456 195.9456 392.6079 196.2831 392.2186 196.5432 391.7776 196.7259 391.3366 196.9086 390.8774 197 390.4 197H187.6C187.1226 197 186.6634 196.9086 186.2223 196.7259 185.7813 196.5432 185.392 196.2831 185.0544 195.9456 184.7168 195.608 184.4567 195.2187 184.274 194.7776 184.0913 194.3366 184 193.8774 184 193.4V160.6C184 160.1226 184.0913 159.6634 184.274 159.2223 184.4567 158.7813 184.7168 158.392 185.0544 158.0544 185.392 157.7168 185.7813 157.4567 186.2223 157.274 186.6634 157.0913 187.1226 157 187.6 157Z"/>
<text xml:space="preserve" transform="matrix(.7033588 0 0 .7033588 19.5023 13.5)" font-size="29" font-family="PingFangSC"><tspan y="187" x="205.6719">A</tspan></text>
<text xml:space="preserve" transform="matrix(.7033588 0 0 .7033588 19.5023 13.5)" font-size="29" font-family="PingFangSC"><tspan y="187" x="224.7249">d</tspan></text>
<text xml:space="preserve" transform="matrix(.7033588 0 0 .7033588 19.5023 13.5)" font-size="29" font-family="PingFangSC"><tspan y="187" x="241.7189">d</tspan></text>
<text xml:space="preserve" transform="matrix(.7033588 0 0 .7033588 19.5023 13.5)" font-size="29" font-family="PingFangSC"><tspan y="187" x="258.7129"> </tspan></text>
<text xml:space="preserve" transform="matrix(.7033588 0 0 .7033588 19.5023 13.5)" font-size="29" font-family="PingFangSC"><tspan y="187" x="268.3698">&#x0026;</tspan></text>
<text xml:space="preserve" transform="matrix(.7033588 0 0 .7033588 19.5023 13.5)" font-size="29" font-family="PingFangSC"><tspan y="187" x="289.4238"> </tspan></text>
<text xml:space="preserve" transform="matrix(.7033588 0 0 .7033588 19.5023 13.5)" font-size="29" font-family="PingFangSC"><tspan y="187" x="299.0808">N</tspan></text>
<text xml:space="preserve" transform="matrix(.7033588 0 0 .7033588 19.5023 13.5)" font-size="29" font-family="PingFangSC"><tspan y="187" x="319.9318">o</tspan></text>
<text xml:space="preserve" transform="matrix(.7033588 0 0 .7033588 19.5023 13.5)" font-size="29" font-family="PingFangSC"><tspan y="187" x="336.9258">r</tspan></text>
<text xml:space="preserve" transform="matrix(.7033588 0 0 .7033588 19.5023 13.5)" font-size="29" font-family="PingFangSC"><tspan y="187" x="347.5108">m</tspan></text>
<path transform="matrix(.7033588,0,0,.7033588,19.85398,13.852051)" stroke-width="5" stroke-linecap="butt" stroke-miterlimit="10" stroke-linejoin="miter" fill="none" stroke="#000000" d="M289 217V197"/>
<path transform="matrix(.7033588,0,0,.7033588,19.85398,13.852051)" stroke-width="5" stroke-linecap="butt" stroke-miterlimit="10" stroke-linejoin="miter" fill="none" stroke="#000000" d="M288 342H44C37.33333 342 34 338.6667 34 332V187C34 180.3333 37.33333 177 44 177H170.16"/>
<path transform="matrix(1,0,0,-1,0,1191.12)" d="M145.3402 1052.774 137.6033 1050.192 139.5375 1052.774 137.6033 1055.355 145.3402 1052.774Z"/>
<path transform="matrix(.7033588,0,0,.7033588,19.85398,13.852051)" stroke-width="5" stroke-linecap="butt" stroke-miterlimit="10" stroke-linejoin="miter" fill="none" stroke="#000000" d="M178.41 177 167.41 180.67 170.16 177 167.41 173.33 178.41 177Z"/>
<path transform="matrix(1,0,0,-1,0,1191.12)" d="M154.9692 1024.639H291.2801C291.6542 1024.639 292.0247 1024.603 292.3916 1024.53 292.7585 1024.457 293.1147 1024.349 293.4603 1024.206 293.8059 1024.063 294.1342 1023.887 294.4453 1023.679 294.7563 1023.471 295.0441 1023.235 295.3086 1022.971 295.5732 1022.706 295.8093 1022.418 296.0172 1022.107 296.225 1021.796 296.4005 1021.468 296.5436 1021.123 296.6868 1020.777 296.7948 1020.421 296.8678 1020.054 296.9408 1019.687 296.9773 1019.316 296.9773 1018.942V967.0344C296.9773 966.6603 296.9408 966.2898 296.8678 965.9229 296.7948 965.556 296.6868 965.1998 296.5436 964.8542 296.4005 964.5086 296.225 964.1803 296.0172 963.8692 295.8093 963.5582 295.5732 963.2704 295.3086 963.0059 295.0441 962.7414 294.7563 962.5052 294.4453 962.2973 294.1342 962.0895 293.8059 961.914 293.4603 961.7709 293.1147 961.6277 292.7585 961.5196 292.3916 961.4466 292.0247 961.3737 291.6542 961.3372 291.2801 961.3372H154.9692C154.5951 961.3372 154.2246 961.3737 153.8577 961.4466 153.4908 961.5196 153.1346 961.6277 152.789 961.7709 152.4433 961.914 152.115 962.0895 151.804 962.2973 151.4929 962.5052 151.2052 962.7413 150.9407 963.0059 150.6761 963.2704 150.44 963.5582 150.2321 963.8692 150.0243 964.1803 149.8488 964.5086 149.7057 964.8542 149.5625 965.1998 149.4544 965.556 149.3815 965.9229 149.3085 966.2898 149.272 966.6603 149.272 967.0344V1018.942C149.272 1019.316 149.3085 1019.687 149.3815 1020.054 149.4544 1020.421 149.5625 1020.777 149.7057 1021.123 149.8488 1021.468 150.0243 1021.796 150.2321 1022.107 150.44 1022.419 150.6761 1022.706 150.9407 1022.971 151.2052 1023.235 151.4929 1023.471 151.804 1023.679 152.115 1023.887 152.4433 1024.063 152.789 1024.206 153.1346 1024.349 153.4908 1024.457 153.8577 1024.53 154.2246 1024.603 154.5951 1024.639 154.9692 1024.639Z" fill="#c1e8f7"/>
<path transform="matrix(.7033588,0,0,.7033588,19.85398,13.852051)" stroke-width="5" stroke-linecap="butt" stroke-miterlimit="4" stroke-linejoin="miter" fill="none" stroke="#000000" d="M192.1 217H385.9C386.4318 217 386.9586 217.0519 387.4802 217.1556 388.0018 217.2594 388.5083 217.413 388.9997 217.6166 389.491 217.8201 389.9578 218.0696 390.4001 218.3651 390.8423 218.6606 391.2514 218.9963 391.6275 219.3724 392.0036 219.7485 392.3394 220.1577 392.6349 220.5999 392.9303 221.0421 393.1798 221.5089 393.3834 222.0002 393.5869 222.4916 393.7405 222.9981 393.8443 223.5197 393.9481 224.0414 394 224.5681 394 225.1V298.9C394 299.4318 393.9481 299.9586 393.8443 300.4802 393.7405 301.0018 393.5869 301.5083 393.3834 301.9997 393.1798 302.4911 392.9303 302.9579 392.6349 303.4001 392.3394 303.8423 392.0036 304.2515 391.6275 304.6275 391.2514 305.0036 390.8423 305.3394 390.4001 305.6349 389.9578 305.9304 389.491 306.1799 388.9997 306.3834 388.5083 306.5869 388.0018 306.7406 387.4802 306.8444 386.9586 306.9481 386.4318 307 385.9 307H192.1C191.5681 307 191.0414 306.9481 190.5197 306.8444 189.9981 306.7406 189.4916 306.5869 189.0002 306.3834 188.5089 306.1799 188.0421 305.9304 187.5999 305.6349 187.1576 305.3394 186.7485 305.0036 186.3724 304.6276 185.9963 304.2515 185.6606 303.8423 185.3651 303.4001 185.0696 302.9579 184.8201 302.4911 184.6166 301.9997 184.413 301.5083 184.2594 301.0018 184.1556 300.4802 184.0519 299.9586 184 299.4318 184 298.9V225.1C184 224.5681 184.0519 224.0414 184.1556 223.5197 184.2594 222.9981 184.413 222.4916 184.6166 222.0002 184.8201 221.5089 185.0696 221.0421 185.3651 220.5999 185.6606 220.1576 185.9963 219.7485 186.3724 219.3724 186.7485 218.9963 187.1576 218.6606 187.5999 218.3651 188.0421 218.0696 188.5089 217.8201 189.0002 217.6166 189.4916 217.413 189.9981 217.2594 190.5197 217.1556 191.0414 217.0519 191.5681 217 192.1 217Z"/>
<text xml:space="preserve" transform="matrix(.7033588 0 0 .7033588 19.5023 13.5)" font-size="29" font-family="PingFangSC"><tspan y="255" x="256.0312">F</tspan></text>
<text xml:space="preserve" transform="matrix(.7033588 0 0 .7033588 19.5023 13.5)" font-size="29" font-family="PingFangSC"><tspan y="255" x="272.7642">e</tspan></text>
<text xml:space="preserve" transform="matrix(.7033588 0 0 .7033588 19.5023 13.5)" font-size="29" font-family="PingFangSC"><tspan y="255" x="288.8592">e</tspan></text>
<text xml:space="preserve" transform="matrix(.7033588 0 0 .7033588 19.5023 13.5)" font-size="29" font-family="PingFangSC"><tspan y="255" x="304.9542">d</tspan></text>
<text xml:space="preserve" transform="matrix(.7033588 0 0 .7033588 19.5023 13.5)" font-size="29" font-family="PingFangSC"><tspan y="290" x="234">F</tspan></text>
<text xml:space="preserve" transform="matrix(.7033588 0 0 .7033588 19.5023 13.5)" font-size="29" font-family="PingFangSC"><tspan y="290" x="250.733">o</tspan></text>
<text xml:space="preserve" transform="matrix(.7033588 0 0 .7033588 19.5023 13.5)" font-size="29" font-family="PingFangSC"><tspan y="290" x="267.727">r</tspan></text>
<text xml:space="preserve" transform="matrix(.7033588 0 0 .7033588 19.5023 13.5)" font-size="29" font-family="PingFangSC"><tspan y="290" x="278.312">w</tspan></text>
<text xml:space="preserve" transform="matrix(.7033588 0 0 .7033588 19.5023 13.5)" font-size="29" font-family="PingFangSC"><tspan y="290" x="300.207">a</tspan></text>
<text xml:space="preserve" transform="matrix(.7033588 0 0 .7033588 19.5023 13.5)" font-size="29" font-family="PingFangSC"><tspan y="290" x="316.418">r</tspan></text>
<text xml:space="preserve" transform="matrix(.7033588 0 0 .7033588 19.5023 13.5)" font-size="29" font-family="PingFangSC"><tspan y="290" x="327.0029">d</tspan></text>
<path transform="matrix(.7033588,0,0,.7033588,19.85398,13.852051)" stroke-width="5" stroke-linecap="butt" stroke-miterlimit="10" stroke-linejoin="miter" fill="none" stroke="#000000" d="M289 377V320.84"/>
<path transform="matrix(1,0,0,-1,0,1191.12)" d="M223.1247 957.4054 225.706 949.6685 223.1247 951.6027 220.5433 949.6685 223.1247 957.4054Z"/>
<path transform="matrix(.7033588,0,0,.7033588,19.85398,13.852051)" stroke-width="5" stroke-linecap="butt" stroke-miterlimit="10" stroke-linejoin="miter" fill="none" stroke="#000000" d="M289 312.59 292.67 323.59 289 320.84 285.33 323.59 289 312.59Z"/>
<path transform="matrix(1,0,0,-1,0,1191.12)" d="M151.8041 912.1021H294.4452C294.781 912.1021 295.104 912.0378 295.4142 911.9093 295.7244 911.7808 295.9982 911.5979 296.2357 911.3604 296.4731 911.123 296.6561 910.8492 296.7846 910.539 296.9131 910.2288 296.9773 909.9058 296.9773 909.57V886.4998C296.9773 886.164 296.9131 885.8411 296.7846 885.5308 296.6561 885.2206 296.4731 884.9468 296.2357 884.7094 295.9982 884.4719 295.7244 884.289 295.4142 884.1605 295.104 884.032 294.781 883.9677 294.4452 883.9677H151.8041C151.4683 883.9677 151.1453 884.032 150.8351 884.1605 150.5249 884.289 150.251 884.4719 150.0136 884.7094 149.7762 884.9468 149.5932 885.2206 149.4647 885.5308 149.3362 885.8411 149.272 886.164 149.272 886.4998V909.57C149.272 909.9058 149.3362 910.2288 149.4647 910.539 149.5932 910.8492 149.7762 911.123 150.0136 911.3604 150.251 911.5979 150.5249 911.7808 150.8351 911.9093 151.1453 912.0378 151.4683 912.1021 151.8041 912.1021Z" fill="#f2f4c1"/>
<path transform="matrix(.7033588,0,0,.7033588,19.85398,13.852051)" stroke-width="5" stroke-linecap="butt" stroke-miterlimit="4" stroke-linejoin="miter" fill="none" stroke="#000000" d="M187.6 377H390.4C390.8774 377 391.3366 377.0913 391.7776 377.274 392.2186 377.4567 392.6079 377.7168 392.9456 378.0544 393.2831 378.392 393.5432 378.7812 393.7259 379.2223 393.9086 379.6634 394 380.1226 394 380.6V413.4C394 413.8774 393.9086 414.3366 393.7259 414.7776 393.5432 415.2187 393.2831 415.608 392.9456 415.9456 392.6079 416.2831 392.2186 416.5432 391.7776 416.7259 391.3366 416.9086 390.8774 417 390.4 417H187.6C187.1226 417 186.6634 416.9086 186.2223 416.7259 185.7813 416.5432 185.392 416.2831 185.0544 415.9456 184.7168 415.608 184.4567 415.2187 184.274 414.7776 184.0913 414.3366 184 413.8774 184 413.4V380.6C184 380.1226 184.0913 379.6634 184.274 379.2223 184.4567 378.7812 184.7168 378.392 185.0544 378.0544 185.392 377.7168 185.7813 377.4567 186.2223 377.274 186.6634 377.0913 187.1226 377 187.6 377Z"/>
<text xml:space="preserve" transform="matrix(.7033588 0 0 .7033588 19.5023 13.5)" font-size="29" font-family="PingFangSC"><tspan y="407" x="205.6719">A</tspan></text>
<text xml:space="preserve" transform="matrix(.7033588 0 0 .7033588 19.5023 13.5)" font-size="29" font-family="PingFangSC"><tspan y="407" x="224.7249">d</tspan></text>
<text xml:space="preserve" transform="matrix(.7033588 0 0 .7033588 19.5023 13.5)" font-size="29" font-family="PingFangSC"><tspan y="407" x="241.7189">d</tspan></text>
<text xml:space="preserve" transform="matrix(.7033588 0 0 .7033588 19.5023 13.5)" font-size="29" font-family="PingFangSC"><tspan y="407" x="258.7129"> </tspan></text>
<text xml:space="preserve" transform="matrix(.7033588 0 0 .7033588 19.5023 13.5)" font-size="29" font-family="PingFangSC"><tspan y="407" x="268.3698">&#x0026;</tspan></text>
<text xml:space="preserve" transform="matrix(.7033588 0 0 .7033588 19.5023 13.5)" font-size="29" font-family="PingFangSC"><tspan y="407" x="289.4238"> </tspan></text>
<text xml:space="preserve" transform="matrix(.7033588 0 0 .7033588 19.5023 13.5)" font-size="29" font-family="PingFangSC"><tspan y="407" x="299.0808">N</tspan></text>
<text xml:space="preserve" transform="matrix(.7033588 0 0 .7033588 19.5023 13.5)" font-size="29" font-family="PingFangSC"><tspan y="407" x="319.9318">o</tspan></text>
<text xml:space="preserve" transform="matrix(.7033588 0 0 .7033588 19.5023 13.5)" font-size="29" font-family="PingFangSC"><tspan y="407" x="336.9258">r</tspan></text>
<text xml:space="preserve" transform="matrix(.7033588 0 0 .7033588 19.5023 13.5)" font-size="29" font-family="PingFangSC"><tspan y="407" x="347.5108">m</tspan></text>
<path transform="matrix(.7033588,0,0,.7033588,19.85398,13.852051)" stroke-width="5" stroke-linecap="butt" stroke-miterlimit="10" stroke-linejoin="miter" fill="none" stroke="#000000" d="M289 427V417"/>
<path transform="matrix(1,0,0,-1,0,1191.12)" d="M240.7086 859.3502C240.7086 858.7742 240.6804 858.1997 240.624 857.6266 240.5675 857.0535 240.4831 856.4845 240.3707 855.9197 240.2584 855.3549 240.1186 854.7969 239.9514 854.2458 239.7843 853.6947 239.5905 853.1531 239.3701 852.6211 239.1497 852.089 238.9038 851.569 238.6323 851.0611 238.3608 850.5533 238.0651 850.0599 237.7452 849.5811 237.4252 849.1022 237.0826 848.6402 236.7172 848.195 236.3519 847.7498 235.9656 847.3236 235.5584 846.9164 235.1512 846.5092 234.725 846.1229 234.2798 845.7576 233.8346 845.3922 233.3726 845.0496 232.8938 844.7297 232.4149 844.4097 231.9216 844.114 231.4137 843.8425 230.9058 843.571 230.3858 843.3251 229.8537 843.1047 229.3217 842.8843 228.7801 842.6905 228.229 842.5234 227.6779 842.3562 227.12 842.2164 226.5551 842.1041 225.9903 841.9917 225.4213 841.9073 224.8482 841.8508 224.2751 841.7944 223.7006 841.7662 223.1247 841.7662 222.5488 841.7662 221.9743 841.7944 221.4012 841.8508 220.828 841.9073 220.2591 841.9917 219.6942 842.1041 219.1294 842.2164 218.5714 842.3562 218.0203 842.5234 217.4692 842.6905 216.9276 842.8843 216.3956 843.1047 215.8635 843.3251 215.3435 843.571 214.8356 843.8425 214.3278 844.1139 213.8344 844.4097 213.3555 844.7297 212.8767 845.0496 212.4147 845.3922 211.9695 845.7576 211.5244 846.1229 211.0982 846.5092 210.6909 846.9164 210.2837 847.3236 209.8974 847.7498 209.5321 848.195 209.1667 848.6402 208.8241 849.1022 208.5041 849.5811 208.1842 850.0599 207.8885 850.5533 207.617 851.0611 207.3455 851.569 207.0996 852.089 206.8792 852.6211 206.6588 853.1531 206.465 853.6947 206.2978 854.2458 206.1307 854.7969 205.9909 855.3549 205.8786 855.9197 205.7662 856.4845 205.6818 857.0535 205.6254 857.6266 205.5689 858.1997 205.5407 858.7742 205.5407 859.3502 205.5407 859.926 205.5689 860.5006 205.6254 861.0737 205.6818 861.6468 205.7662 862.2158 205.8786 862.7807 205.9909 863.3455 206.1307 863.9034 206.2978 864.4545 206.465 865.0056 206.6588 865.5472 206.8792 866.0793 207.0996 866.6114 207.3455 867.1313 207.617 867.6392 207.8885 868.1471 208.1842 868.6405 208.5041 869.1193 208.8241 869.5981 209.1667 870.0601 209.5321 870.5053 209.8974 870.9505 210.2837 871.3767 210.6909 871.7839 211.0982 872.1911 211.5244 872.5774 211.9695 872.9428 212.4147 873.3081 212.8767 873.6507 213.3555 873.9707 213.8344 874.2906 214.3278 874.5864 214.8356 874.8579 215.3435 875.1293 215.8635 875.3753 216.3956 875.5957 216.9276 875.816 217.4692 876.0098 218.0203 876.177 218.5714 876.3441 219.1294 876.4839 219.6942 876.5962 220.2591 876.7086 220.828 876.793 221.4012 876.8494 221.9743 876.9059 222.5488 876.9341 223.1247 876.9341 223.7006 876.9341 224.2751 876.9059 224.8482 876.8494 225.4213 876.793 225.9903 876.7086 226.5551 876.5963 227.12 876.4839 227.6779 876.3442 228.229 876.177 228.7801 876.0098 229.3217 875.816 229.8537 875.5957 230.3858 875.3753 230.9058 875.1293 231.4137 874.8579 231.9216 874.5864 232.4149 874.2907 232.8938 873.9707 233.3726 873.6508 233.8346 873.3081 234.2798 872.9428 234.725 872.5774 235.1512 872.1911 235.5584 871.7839 235.9656 871.3767 236.3519 870.9505 236.7172 870.5053 237.0826 870.0601 237.4252 869.5981 237.7452 869.1193 238.0651 868.6405 238.3608 868.1471 238.6323 867.6392 238.9038 867.1313 239.1497 866.6114 239.3701 866.0793 239.5905 865.5472 239.7843 865.0057 239.9514 864.4545 240.1186 863.9034 240.2584 863.3455 240.3707 862.7807 240.4831 862.2158 240.5675 861.6468 240.624 861.0737 240.6804 860.5006 240.7086 859.926 240.7086 859.3502Z" fill="#ffffff"/>
<path transform="matrix(.7033588,0,0,.7033588,19.85398,13.852051)" stroke-width="5" stroke-linecap="butt" stroke-miterlimit="4" stroke-linejoin="miter" fill="none" stroke="#000000" d="M314 452C314 452.8188 313.9599 453.6356 313.8796 454.4504 313.7994 455.2653 313.6793 456.0742 313.5196 456.8772 313.3598 457.6803 313.1611 458.4736 312.9235 459.2571 312.6858 460.0406 312.4103 460.8106 312.0969 461.567 311.7836 462.3235 311.434 463.0628 311.048 463.7849 310.662 464.507 310.2416 465.2084 309.7867 465.8892 309.3318 466.57 308.8447 467.2269 308.3252 467.8598 307.8058 468.4928 307.2566 469.0987 306.6776 469.6776 306.0987 470.2566 305.4927 470.8058 304.8598 471.3252 304.2269 471.8447 303.57 472.3318 302.8892 472.7867 302.2084 473.2416 301.507 473.662 300.7849 474.048 300.0628 474.434 299.3235 474.7836 298.5671 475.0969 297.8106 475.4103 297.0406 475.6858 296.2571 475.9235 295.4736 476.1612 294.6803 476.3599 293.8772 476.5196 293.0742 476.6794 292.2653 476.7994 291.4504 476.8797 290.6356 476.9599 289.8188 477 289 477 288.1812 477 287.3644 476.9599 286.5496 476.8797 285.7347 476.7994 284.9258 476.6794 284.1227 476.5196 283.3197 476.3599 282.5264 476.1612 281.7429 475.9235 280.9594 475.6858 280.1894 475.4103 279.4329 475.0969 278.6765 474.7836 277.9372 474.434 277.2151 474.048 276.493 473.6621 275.7916 473.2416 275.1107 472.7867 274.4299 472.3318 273.7731 471.8447 273.1402 471.3252 272.5073 470.8058 271.9013 470.2566 271.3223 469.6776 270.7434 469.0987 270.1942 468.4928 269.6747 467.8598 269.1553 467.2269 268.6682 466.57 268.2133 465.8892 267.7584 465.2084 267.3379 464.507 266.952 463.7849 266.566 463.0628 266.2163 462.3235 265.903 461.567 265.5897 460.8106 265.3142 460.0406 265.0765 459.2571 264.8388 458.4736 264.6401 457.6803 264.4804 456.8772 264.3206 456.0742 264.2006 455.2653 264.1204 454.4504 264.0401 453.6356 264 452.8188 264 452 264 451.1812 264.0401 450.3644 264.1204 449.5496 264.2006 448.7347 264.3206 447.9257 264.4804 447.1227 264.6401 446.3196 264.8388 445.5264 265.0765 444.7429 265.3142 443.9593 265.5897 443.1893 265.903 442.4328 266.2163 441.6764 266.566 440.9371 266.952 440.2151 267.3379 439.493 267.7584 438.7915 268.2132 438.1107 268.6682 437.4299 269.1553 436.7731 269.6747 436.1402 270.1942 435.5072 270.7434 434.9013 271.3223 434.3223 271.9013 433.7433 272.5073 433.1941 273.1402 432.6747 273.7731 432.1553 274.4299 431.6681 275.1107 431.2132 275.7916 430.7584 276.493 430.3379 277.2151 429.9519 277.9372 429.566 278.6765 429.2163 279.4329 428.9029 280.1894 428.5896 280.9594 428.3141 281.7429 428.0765 282.5264 427.8388 283.3197 427.6401 284.1227 427.4804 284.9258 427.3207 285.7347 427.2006 286.5496 427.1204 287.3644 427.0401 288.1812 427 289 427 289.8188 427 290.6356 427.0401 291.4504 427.1204 292.2653 427.2006 293.0742 427.3206 293.8772 427.4804 294.6803 427.6401 295.4736 427.8388 296.2571 428.0765 297.0406 428.3141 297.8106 428.5896 298.5671 428.9029 299.3235 429.2163 300.0628 429.566 300.7849 429.9519 301.507 430.3379 302.2084 430.7583 302.8892 431.2132 303.57 431.6681 304.2269 432.1553 304.8598 432.6747 305.4927 433.1941 306.0987 433.7433 306.6776 434.3223 307.2566 434.9013 307.8058 435.5072 308.3252 436.1402 308.8447 436.7731 309.3318 437.4299 309.7867 438.1107 310.2416 438.7915 310.662 439.493 311.048 440.2151 311.434 440.9371 311.7836 441.6764 312.0969 442.4328 312.4103 443.1893 312.6858 443.9593 312.9235 444.7428 313.1611 445.5264 313.3598 446.3196 313.5196 447.1227 313.6793 447.9257 313.7994 448.7347 313.8796 449.5495 313.9599 450.3644 314 451.1812 314 452Z"/>
<path transform="matrix(.7033588,0,0,.7033588,19.85398,13.852051)" stroke-width="5" stroke-linecap="butt" stroke-miterlimit="10" stroke-linejoin="miter" fill="none" stroke="#000000" d="M271.25 434.25 306.75 469.75"/>
<path transform="matrix(.7033588,0,0,.7033588,19.85398,13.852051)" stroke-width="5" stroke-linecap="butt" stroke-miterlimit="10" stroke-linejoin="miter" fill="none" stroke="#000000" d="M306.75 434.25 271.25 469.75"/>
<path transform="matrix(.7033588,0,0,.7033588,19.85398,13.852051)" stroke-width="5" stroke-linecap="butt" stroke-miterlimit="10" stroke-linejoin="miter" fill="none" stroke="#000000" d="M184 487V462C184 455.3333 187.3333 452 194 452H250.16"/>
<path transform="matrix(1,0,0,-1,0,1191.12)" d="M201.6089 859.3502 193.872 856.7688 195.8062 859.3502 193.872 861.9315 201.6089 859.3502Z"/>
<path transform="matrix(.7033588,0,0,.7033588,19.85398,13.852051)" stroke-width="5" stroke-linecap="butt" stroke-miterlimit="10" stroke-linejoin="miter" fill="none" stroke="#000000" d="M258.41 452 247.41 455.67 250.16 452 247.41 448.33 258.41 452Z"/>
<path transform="matrix(.7033588,0,0,.7033588,19.85398,13.852051)" stroke-width="5" stroke-linecap="butt" stroke-miterlimit="10" stroke-linejoin="miter" fill="none" stroke="#000000" d="M393 487V462C393 455.3333 389.6667 452 383 452H327.84"/>
<path transform="matrix(1,0,0,-1,0,1191.12)" d="M244.6404 859.3502 252.3774 861.9315 250.4431 859.3502 252.3774 856.7688 244.6404 859.3502Z"/>
<path transform="matrix(.7033588,0,0,.7033588,19.85398,13.852051)" stroke-width="5" stroke-linecap="butt" stroke-miterlimit="10" stroke-linejoin="miter" fill="none" stroke="#000000" d="M319.59 452 330.59 448.33 327.84 452 330.59 455.67 319.59 452Z"/>
<path transform="matrix(.7033588,0,0,.7033588,19.85398,13.852051)" stroke-width="5" stroke-linecap="butt" stroke-miterlimit="10" stroke-linejoin="miter" fill="none" stroke="#000000" d="M184 727.84V737.42C184 743.8066 187.3333 747 194 747H383C389.6667 747 393 743.8066 393 737.42V727.84"/>
<path transform="matrix(1,0,0,-1,0,1191.12)" d="M149.272 671.1384 151.8533 663.4014 149.272 665.3356 146.6907 663.4014 149.272 671.1384Z"/>
<path transform="matrix(.7033588,0,0,.7033588,19.85398,13.852051)" stroke-width="5" stroke-linecap="butt" stroke-miterlimit="10" stroke-linejoin="miter" fill="none" stroke="#000000" d="M184 719.59 187.67 730.59 184 727.84 180.33 730.59 184 719.59Z"/>
<path transform="matrix(1,0,0,-1,0,1191.12)" d="M296.274 671.1384 298.8553 663.4014 296.274 665.3356 293.6926 663.4014 296.274 671.1384Z"/>
<path transform="matrix(.7033588,0,0,.7033588,19.85398,13.852051)" stroke-width="5" stroke-linecap="butt" stroke-miterlimit="10" stroke-linejoin="miter" fill="none" stroke="#000000" d="M393 719.59 396.67 730.59 393 727.84 389.33 730.59 393 719.59Z"/>
<path transform="matrix(.7033588,0,0,.7033588,19.85398,13.852051)" stroke-width="5" stroke-linecap="butt" stroke-miterlimit="10" stroke-linejoin="miter" fill="none" stroke="#000000" d="M289 777H44C37.33333 777 34 773.6667 34 767V407C34 400.3333 37.33333 397 44 397H170.16"/>
<path transform="matrix(1,0,0,-1,0,1191.12)" d="M145.3402 898.0349 137.6033 894.1664 139.5375 898.0349 137.6033 901.9034 145.3402 898.0349Z"/>
<path transform="matrix(.7033588,0,0,.7033588,19.85398,13.852051)" stroke-width="5" stroke-linecap="butt" stroke-miterlimit="10" stroke-linejoin="miter" fill="none" stroke="#000000" d="M178.41 397 167.41 402.5 170.16 397 167.41 391.5 178.41 397Z"/>
<path transform="matrix(1,0,0,-1,0,1191.12)" d="M91.66691 834.7326H206.8771C207.2511 834.7326 207.6216 834.6961 207.9885 834.6231 208.3554 834.5502 208.7117 834.4421 209.0573 834.299 209.4029 834.1558 209.7312 833.9803 210.0423 833.7725 210.3533 833.5647 210.6411 833.3285 210.9056 833.064 211.1701 832.7995 211.4063 832.5117 211.6141 832.2006 211.8219 831.8896 211.9974 831.5613 212.1406 831.2157 212.2837 830.87 212.3918 830.5138 212.4648 830.1469 212.5378 829.78 212.5743 829.4095 212.5743 829.0354V777.1275C212.5743 776.7535 212.5378 776.383 212.4648 776.0161 212.3918 775.6492 212.2837 775.2929 212.1406 774.9473 211.9974 774.6017 211.8219 774.2734 211.6141 773.9623 211.4063 773.6513 211.1701 773.3635 210.9056 773.099 210.6411 772.8345 210.3533 772.5983 210.0423 772.3905 209.7312 772.1826 209.4029 772.0072 209.0573 771.864 208.7117 771.7209 208.3554 771.6128 207.9885 771.5398 207.6216 771.4668 207.2511 771.4303 206.8771 771.4303H91.66691C91.29282 771.4303 90.92233 771.4668 90.55543 771.5398 90.18854 771.6128 89.83229 771.7209 89.48668 771.864 89.14107 772.0072 88.81275 772.1827 88.50171 772.3905 88.19066 772.5983 87.90289 772.8345 87.63837 773.099 87.37386 773.3635 87.13768 773.6513 86.92985 773.9623 86.72203 774.2734 86.54653 774.6017 86.40337 774.9473 86.26022 775.2929 86.15215 775.6492 86.07917 776.0161 86.00619 776.383 85.9697 776.7535 85.96971 777.1275V829.0354C85.9697 829.4095 86.00619 829.78 86.07917 830.1469 86.15215 830.5138 86.26022 830.87 86.40337 831.2156 86.54653 831.5612 86.72203 831.8896 86.92985 832.2006 87.13768 832.5117 87.37386 832.7994 87.63837 833.0639 87.90289 833.3285 88.19066 833.5647 88.50171 833.7725 88.81275 833.9803 89.14107 834.1558 89.48668 834.299 89.83229 834.4421 90.18854 834.5502 90.55544 834.6231 90.92233 834.6961 91.29282 834.7326 91.66691 834.7326Z" fill="#ffe2bb"/>
<path transform="matrix(.7033588,0,0,.7033588,19.85398,13.852051)" stroke-width="5" stroke-linecap="butt" stroke-miterlimit="4" stroke-linejoin="miter" fill="none" stroke="#000000" d="M102.1 487H265.9C266.4318 487 266.9586 487.0519 267.4802 487.1556 268.0019 487.2593 268.5083 487.413 268.9997 487.6165 269.4911 487.82 269.9579 488.0695 270.4001 488.365 270.8423 488.6605 271.2515 488.9963 271.6276 489.3724 272.0036 489.7484 272.3394 490.1576 272.6349 490.5998 272.9304 491.0421 273.1799 491.5088 273.3834 492.0002 273.5869 492.4916 273.7406 492.9981 273.8443 493.5197 273.9481 494.0414 274 494.5682 274 495.1V568.9C274 569.4318 273.9481 569.9586 273.8443 570.4802 273.7406 571.0018 273.5869 571.5083 273.3834 571.9997 273.1799 572.4911 272.9304 572.9579 272.6349 573.4001 272.3394 573.8423 272.0036 574.2515 271.6276 574.6276 271.2515 575.0036 270.8423 575.3394 270.4001 575.6349 269.9579 575.9304 269.4911 576.1798 268.9997 576.3834 268.5083 576.5869 268.0018 576.7405 267.4802 576.8443 266.9586 576.9481 266.4318 577 265.9 577H102.1C101.5681 577 101.0414 576.9481 100.5198 576.8443 99.99812 576.7405 99.49162 576.5869 99.00025 576.3834 98.50888 576.1798 98.04209 575.9303 97.59987 575.6348 97.15765 575.3394 96.7485 575.0036 96.37243 574.6276 95.99635 574.2515 95.66057 573.8423 95.36509 573.4001 95.06961 572.9579 94.8201 572.4911 94.61656 571.9997 94.41303 571.5083 94.25938 571.0018 94.15562 570.4802 94.05187 569.9586 93.99999 569.4318 94 568.9V495.1C93.99999 494.5682 94.05187 494.0414 94.15562 493.5197 94.25938 492.9981 94.41303 492.4916 94.61656 492.0002 94.8201 491.5089 95.06961 491.0421 95.36509 490.5999 95.66057 490.1576 95.99635 489.7485 96.37243 489.3724 96.7485 488.9963 97.15765 488.6605 97.59987 488.365 98.04209 488.0695 98.50888 487.82 99.00025 487.6165 99.49162 487.413 99.99812 487.2594 100.5198 487.1556 101.0414 487.0519 101.5681 487 102.1 487Z"/>
<text xml:space="preserve" transform="matrix(.7033588 0 0 .7033588 19.5023 13.5)" font-size="29" font-family="PingFangSC"><tspan y="525" x="128.4062">S</tspan></text>
<text xml:space="preserve" transform="matrix(.7033588 0 0 .7033588 19.5023 13.5)" font-size="29" font-family="PingFangSC"><tspan y="525" x="146.7342">p</tspan></text>
<text xml:space="preserve" transform="matrix(.7033588 0 0 .7033588 19.5023 13.5)" font-size="29" font-family="PingFangSC"><tspan y="525" x="163.7282">e</tspan></text>
<text xml:space="preserve" transform="matrix(.7033588 0 0 .7033588 19.5023 13.5)" font-size="29" font-family="PingFangSC"><tspan y="525" x="179.8232">c</tspan></text>
<text xml:space="preserve" transform="matrix(.7033588 0 0 .7033588 19.5023 13.5)" font-size="29" font-family="PingFangSC"><tspan y="525" x="195.6862">t</tspan></text>
<text xml:space="preserve" transform="matrix(.7033588 0 0 .7033588 19.5023 13.5)" font-size="29" font-family="PingFangSC"><tspan y="525" x="205.9812">r</tspan></text>
<text xml:space="preserve" transform="matrix(.7033588 0 0 .7033588 19.5023 13.5)" font-size="29" font-family="PingFangSC"><tspan y="525" x="216.5662">a</tspan></text>
<text xml:space="preserve" transform="matrix(.7033588 0 0 .7033588 19.5023 13.5)" font-size="29" font-family="PingFangSC"><tspan y="525" x="232.7772">l</tspan></text>
<text xml:space="preserve" transform="matrix(.7033588 0 0 .7033588 19.5023 13.5)" font-size="29" font-family="PingFangSC"><tspan y="560" x="122.5625">A</tspan></text>
<text xml:space="preserve" transform="matrix(.7033588 0 0 .7033588 19.5023 13.5)" font-size="29" font-family="PingFangSC"><tspan y="560" x="141.6155">t</tspan></text>
<text xml:space="preserve" transform="matrix(.7033588 0 0 .7033588 19.5023 13.5)" font-size="29" font-family="PingFangSC"><tspan y="560" x="151.9105">t</tspan></text>
<text xml:space="preserve" transform="matrix(.7033588 0 0 .7033588 19.5023 13.5)" font-size="29" font-family="PingFangSC"><tspan y="560" x="162.2055">e</tspan></text>
<text xml:space="preserve" transform="matrix(.7033588 0 0 .7033588 19.5023 13.5)" font-size="29" font-family="PingFangSC"><tspan y="560" x="178.3005">n</tspan></text>
<text xml:space="preserve" transform="matrix(.7033588 0 0 .7033588 19.5023 13.5)" font-size="29" font-family="PingFangSC"><tspan y="560" x="194.5115">t</tspan></text>
<text xml:space="preserve" transform="matrix(.7033588 0 0 .7033588 19.5023 13.5)" font-size="29" font-family="PingFangSC"><tspan y="560" x="204.8065">i</tspan></text>
<text xml:space="preserve" transform="matrix(.7033588 0 0 .7033588 19.5023 13.5)" font-size="29" font-family="PingFangSC"><tspan y="560" x="212.2305">o</tspan></text>
<text xml:space="preserve" transform="matrix(.7033588 0 0 .7033588 19.5023 13.5)" font-size="29" font-family="PingFangSC"><tspan y="560" x="229.2245">n</tspan></text>
<path transform="matrix(.7033588,0,0,.7033588,19.85398,13.852051)" stroke-width="5" stroke-linecap="butt" stroke-miterlimit="10" stroke-linejoin="miter" fill="none" stroke="#000000" d="M184 624V590.84"/>
<path transform="matrix(1,0,0,-1,0,1191.12)" d="M149.272 767.4985 151.8533 759.7616 149.272 761.6958 146.6907 759.7616 149.272 767.4985Z"/>
<path transform="matrix(.7033588,0,0,.7033588,19.85398,13.852051)" stroke-width="5" stroke-linecap="butt" stroke-miterlimit="10" stroke-linejoin="miter" fill="none" stroke="#000000" d="M184 582.59 187.67 593.59 184 590.84 180.33 593.59 184 582.59Z"/>
<path transform="matrix(1,0,0,-1,0,1191.12)" d="M88.15012 738.3724H210.3939C210.7679 738.3724 211.1384 738.336 211.5053 738.263 211.8722 738.19 212.2285 738.082 212.5741 737.9388 212.9197 737.7956 213.248 737.6201 213.5591 737.4123 213.8701 737.2045 214.1579 736.9683 214.4224 736.7038 214.6869 736.4393 214.9231 736.1515 215.1309 735.8405 215.3387 735.5295 215.5142 735.2011 215.6574 734.8556 215.8005 734.5099 215.9086 734.1537 215.9816 733.7868 216.0546 733.4199 216.0911 733.0493 216.0911 732.6753V680.7673C216.0911 680.3933 216.0546 680.0228 215.9816 679.656 215.9086 679.2891 215.8005 678.9328 215.6574 678.5872 215.5142 678.2416 215.3387 677.9133 215.1309 677.6022 214.9231 677.2912 214.6869 677.0034 214.4224 676.7389 214.1579 676.4743 213.8701 676.2382 213.5591 676.0304 213.248 675.8225 212.9197 675.647 212.5741 675.5039 212.2285 675.3607 211.8722 675.2526 211.5053 675.1797 211.1384 675.1067 210.7679 675.0702 210.3939 675.0702H88.15012C87.77603 675.0702 87.40553 675.1067 87.03864 675.1797 86.67174 675.2526 86.31549 675.3607 85.96989 675.5039 85.62428 675.647 85.29595 675.8225 84.98492 676.0304 84.67388 676.2382 84.3861 676.4743 84.12158 676.7389 83.85706 677.0034 83.62089 677.2912 83.41306 677.6022 83.20523 677.9133 83.02973 678.2416 82.88658 678.5872 82.74342 678.9328 82.63536 679.2891 82.56238 679.656 82.4894 680.0228 82.45291 680.3933 82.45291 680.7673V732.6753C82.45291 733.0493 82.4894 733.4199 82.56238 733.7868 82.63536 734.1537 82.74342 734.5099 82.88658 734.8556 83.02973 735.2011 83.20523 735.5295 83.41306 735.8405 83.62089 736.1515 83.85706 736.4393 84.12158 736.7038 84.3861 736.9683 84.67388 737.2045 84.98492 737.4123 85.29595 737.6201 85.62428 737.7956 85.96989 737.9388 86.31549 738.082 86.67174 738.19 87.03865 738.263 87.40554 738.336 87.77603 738.3724 88.15012 738.3724Z" fill="#c1e8f7"/>
<path transform="matrix(.7033588,0,0,.7033588,19.85398,13.852051)" stroke-width="5" stroke-linecap="butt" stroke-miterlimit="4" stroke-linejoin="miter" fill="none" stroke="#000000" d="M97.1 624H270.9C271.4318 624 271.9586 624.0519 272.4802 624.1556 273.0019 624.2593 273.5083 624.413 273.9997 624.6165 274.4911 624.8201 274.9579 625.0696 275.4001 625.365 275.8423 625.6605 276.2515 625.9963 276.6275 626.3724 277.0036 626.7485 277.3394 627.1576 277.6349 627.5997 277.9304 628.042 278.1798 628.5088 278.3834 629.0001 278.5869 629.4915 278.7405 629.998 278.8443 630.5196 278.9481 631.0413 279 631.5681 279 632.1V705.9C279 706.4318 278.9481 706.9586 278.8443 707.4801 278.7405 708.0018 278.5869 708.5082 278.3834 708.9996 278.1798 709.491 277.9304 709.9578 277.6349 710.4 277.3394 710.8422 277.0036 711.2514 276.6275 711.6275 276.2515 712.0036 275.8423 712.3394 275.4001 712.6348 274.9579 712.9303 274.4911 713.1798 273.9997 713.3834 273.5083 713.5869 273.0018 713.7405 272.4802 713.8443 271.9586 713.9481 271.4318 713.9999 270.9 714H97.1C96.56814 713.9999 96.04139 713.9481 95.51976 713.8443 94.99812 713.7405 94.49162 713.5869 94.00026 713.3834 93.50889 713.1798 93.04209 712.9303 92.59988 712.6348 92.15765 712.3394 91.7485 712.0036 91.37243 711.6275 90.99635 711.2514 90.66057 710.8422 90.36509 710.4 90.0696 709.9578 89.82009 709.491 89.61656 708.9996 89.41303 708.5082 89.25939 708.0018 89.15564 707.4801 89.05188 706.9586 89 706.4318 89 705.9V632.1C89 631.5681 89.05188 631.0413 89.15564 630.5196 89.25939 629.998 89.41303 629.4915 89.61656 629.0001 89.82009 628.5088 90.0696 628.042 90.36509 627.5997 90.66057 627.1576 90.99635 626.7485 91.37243 626.3724 91.7485 625.9963 92.15765 625.6605 92.59988 625.365 93.04209 625.0696 93.50889 624.8201 94.00026 624.6165 94.49162 624.413 94.99812 624.2593 95.51977 624.1556 96.0414 624.0519 96.56814 624 97.1 624Z"/>
<text xml:space="preserve" transform="matrix(.7033588 0 0 .7033588 19.5023 13.5)" font-size="29" font-family="PingFangSC"><tspan y="662" x="137.8438">S</tspan></text>
<text xml:space="preserve" transform="matrix(.7033588 0 0 .7033588 19.5023 13.5)" font-size="29" font-family="PingFangSC"><tspan y="662" x="156.1717">p</tspan></text>
<text xml:space="preserve" transform="matrix(.7033588 0 0 .7033588 19.5023 13.5)" font-size="29" font-family="PingFangSC"><tspan y="662" x="173.1657">a</tspan></text>
<text xml:space="preserve" transform="matrix(.7033588 0 0 .7033588 19.5023 13.5)" font-size="29" font-family="PingFangSC"><tspan y="662" x="189.3767">t</tspan></text>
<text xml:space="preserve" transform="matrix(.7033588 0 0 .7033588 19.5023 13.5)" font-size="29" font-family="PingFangSC"><tspan y="662" x="199.6717">i</tspan></text>
<text xml:space="preserve" transform="matrix(.7033588 0 0 .7033588 19.5023 13.5)" font-size="29" font-family="PingFangSC"><tspan y="662" x="207.0957">a</tspan></text>
<text xml:space="preserve" transform="matrix(.7033588 0 0 .7033588 19.5023 13.5)" font-size="29" font-family="PingFangSC"><tspan y="662" x="223.3067">l</tspan></text>
<text xml:space="preserve" transform="matrix(.7033588 0 0 .7033588 19.5023 13.5)" font-size="29" font-family="PingFangSC"><tspan y="697" x="103.2969">P</tspan></text>
<text xml:space="preserve" transform="matrix(.7033588 0 0 .7033588 19.5023 13.5)" font-size="29" font-family="PingFangSC"><tspan y="697" x="121.9149">o</tspan></text>
<text xml:space="preserve" transform="matrix(.7033588 0 0 .7033588 19.5023 13.5)" font-size="29" font-family="PingFangSC"><tspan y="697" x="138.9089">o</tspan></text>
<text xml:space="preserve" transform="matrix(.7033588 0 0 .7033588 19.5023 13.5)" font-size="29" font-family="PingFangSC"><tspan y="697" x="155.9028">l</tspan></text>
<text xml:space="preserve" transform="matrix(.7033588 0 0 .7033588 19.5023 13.5)" font-size="29" font-family="PingFangSC"><tspan y="697" x="162.7178"> </tspan></text>
<text xml:space="preserve" transform="matrix(.7033588 0 0 .7033588 19.5023 13.5)" font-size="29" font-family="PingFangSC"><tspan y="697" x="172.3748">&#x0026;</tspan></text>
<text xml:space="preserve" transform="matrix(.7033588 0 0 .7033588 19.5023 13.5)" font-size="29" font-family="PingFangSC"><tspan y="697" x="193.4288"> </tspan></text>
<text xml:space="preserve" transform="matrix(.7033588 0 0 .7033588 19.5023 13.5)" font-size="29" font-family="PingFangSC"><tspan y="697" x="203.0858">P</tspan></text>
<text xml:space="preserve" transform="matrix(.7033588 0 0 .7033588 19.5023 13.5)" font-size="29" font-family="PingFangSC"><tspan y="697" x="221.7038">r</tspan></text>
<text xml:space="preserve" transform="matrix(.7033588 0 0 .7033588 19.5023 13.5)" font-size="29" font-family="PingFangSC"><tspan y="697" x="232.2888">o</tspan></text>
<text xml:space="preserve" transform="matrix(.7033588 0 0 .7033588 19.5023 13.5)" font-size="29" font-family="PingFangSC"><tspan y="697" x="249.2828">j</tspan></text>
<text xml:space="preserve" transform="matrix(.7033588 0 0 .7033588 19.5023 13.5)" font-size="29" font-family="PingFangSC"><tspan y="697" x="257.0258">.</tspan></text>
<path transform="matrix(.7033588,0,0,.7033588,19.85398,13.852051)" stroke-width="5" stroke-linecap="butt" stroke-miterlimit="10" stroke-linejoin="miter" fill="none" stroke="#000000" d="M139 590.84V598.92C139 604.3066 142.3333 607 149 607H219C225.6667 607 229 604.3066 229 598.92V590.84"/>
<path transform="matrix(1,0,0,-1,0,1191.12)" d="M117.6209 767.4985 120.2022 759.7616 117.6209 761.6958 115.0395 759.7616 117.6209 767.4985Z"/>
<path transform="matrix(.7033588,0,0,.7033588,19.85398,13.852051)" stroke-width="5" stroke-linecap="butt" stroke-miterlimit="10" stroke-linejoin="miter" fill="none" stroke="#000000" d="M139 582.59 142.67 593.59 139 590.84 135.33 593.59 139 582.59Z"/>
<path transform="matrix(1,0,0,-1,0,1191.12)" d="M180.9231 767.4985 183.5045 759.7616 180.9231 761.6958 178.3418 759.7616 180.9231 767.4985Z"/>
<path transform="matrix(.7033588,0,0,.7033588,19.85398,13.852051)" stroke-width="5" stroke-linecap="butt" stroke-miterlimit="10" stroke-linejoin="miter" fill="none" stroke="#000000" d="M229 582.59 232.67 593.59 229 590.84 225.33 593.59 229 582.59Z"/>
<path transform="matrix(1,0,0,-1,0,1191.12)" d="M238.6689 834.7326H353.8791C354.2531 834.7326 354.6236 834.6961 354.9905 834.6231 355.3574 834.5502 355.7137 834.4421 356.0593 834.299 356.4049 834.1558 356.7332 833.9803 357.0442 833.7725 357.3552 833.5647 357.643 833.3285 357.9076 833.064 358.1721 832.7995 358.4083 832.5117 358.6161 832.2006 358.8239 831.8896 358.9994 831.5613 359.1426 831.2157 359.2857 830.87 359.3938 830.5138 359.4668 830.1469 359.5398 829.78 359.5762 829.4095 359.5763 829.0354V777.1275C359.5762 776.7535 359.5398 776.383 359.4668 776.0161 359.3938 775.6492 359.2857 775.2929 359.1426 774.9473 358.9994 774.6017 358.8239 774.2734 358.6161 773.9623 358.4083 773.6513 358.1721 773.3635 357.9076 773.099 357.6431 772.8345 357.3553 772.5983 357.0442 772.3905 356.7332 772.1826 356.4049 772.0072 356.0593 771.864 355.7137 771.7209 355.3574 771.6128 354.9905 771.5398 354.6236 771.4668 354.2531 771.4303 353.8791 771.4303H238.6689C238.2948 771.4303 237.9243 771.4668 237.5574 771.5398 237.1905 771.6128 236.8343 771.7209 236.4887 771.864 236.1431 772.0072 235.8147 772.1827 235.5037 772.3905 235.1927 772.5983 234.9049 772.8345 234.6403 773.099 234.3758 773.3635 234.1397 773.6513 233.9318 773.9623 233.724 774.2734 233.5485 774.6017 233.4053 774.9473 233.2622 775.2929 233.1541 775.6492 233.0811 776.0161 233.0082 776.383 232.9717 776.7535 232.9717 777.1275V829.0354C232.9717 829.4095 233.0082 829.78 233.0811 830.1469 233.1541 830.5138 233.2622 830.87 233.4053 831.2156 233.5485 831.5612 233.724 831.8896 233.9318 832.2006 234.1397 832.5117 234.3758 832.7994 234.6403 833.0639 234.9049 833.3285 235.1927 833.5647 235.5037 833.7725 235.8147 833.9803 236.1431 834.1558 236.4887 834.299 236.8343 834.4421 237.1905 834.5502 237.5574 834.6231 237.9243 834.6961 238.2948 834.7326 238.6689 834.7326Z" fill="#ffe2bb"/>
<path transform="matrix(.7033588,0,0,.7033588,19.85398,13.852051)" stroke-width="5" stroke-linecap="butt" stroke-miterlimit="4" stroke-linejoin="miter" fill="none" stroke="#000000" d="M311.1 487H474.9C475.4318 487 475.9586 487.0519 476.4802 487.1556 477.0018 487.2593 477.5083 487.413 477.9997 487.6165 478.4911 487.82 478.9578 488.0695 479.4 488.365 479.8422 488.6605 480.2514 488.9963 480.6275 489.3724 481.0036 489.7484 481.3394 490.1576 481.6349 490.5998 481.9304 491.0421 482.1798 491.5088 482.3834 492.0002 482.5869 492.4916 482.7405 492.9981 482.8443 493.5197 482.9481 494.0414 483 494.5682 483 495.1V568.9C483 569.4318 482.9481 569.9586 482.8443 570.4802 482.7405 571.0018 482.5869 571.5083 482.3834 571.9997 482.1798 572.4911 481.9304 572.9579 481.6349 573.4001 481.3394 573.8423 481.0036 574.2515 480.6276 574.6276 480.2515 575.0036 479.8423 575.3394 479.4001 575.6349 478.9579 575.9304 478.4911 576.1798 477.9997 576.3834 477.5083 576.5869 477.0018 576.7405 476.4802 576.8443 475.9586 576.9481 475.4318 577 474.9 577H311.1C310.5682 577 310.0414 576.9481 309.5197 576.8443 308.9981 576.7405 308.4916 576.5869 308.0002 576.3834 307.5089 576.1798 307.0421 575.9303 306.5999 575.6348 306.1577 575.3394 305.7485 575.0036 305.3724 574.6276 304.9963 574.2515 304.6606 573.8423 304.365 573.4001 304.0696 572.9579 303.8201 572.4911 303.6166 571.9997 303.413 571.5083 303.2593 571.0018 303.1556 570.4802 303.0519 569.9586 303 569.4318 303 568.9V495.1C303 494.5682 303.0519 494.0414 303.1556 493.5197 303.2593 492.9981 303.413 492.4916 303.6166 492.0002 303.8201 491.5089 304.0696 491.0421 304.365 490.5999 304.6606 490.1576 304.9963 489.7485 305.3724 489.3724 305.7485 488.9963 306.1577 488.6605 306.5999 488.365 307.0421 488.0695 307.5089 487.82 308.0002 487.6165 308.4916 487.413 308.9981 487.2594 309.5197 487.1556 310.0414 487.0519 310.5682 487 311.1 487Z"/>
<text xml:space="preserve" transform="matrix(.7033588 0 0 .7033588 19.5023 13.5)" font-size="29" font-family="PingFangSC"><tspan y="525" x="346.8594">S</tspan></text>
<text xml:space="preserve" transform="matrix(.7033588 0 0 .7033588 19.5023 13.5)" font-size="29" font-family="PingFangSC"><tspan y="525" x="365.1874">p</tspan></text>
<text xml:space="preserve" transform="matrix(.7033588 0 0 .7033588 19.5023 13.5)" font-size="29" font-family="PingFangSC"><tspan y="525" x="382.1814">a</tspan></text>
<text xml:space="preserve" transform="matrix(.7033588 0 0 .7033588 19.5023 13.5)" font-size="29" font-family="PingFangSC"><tspan y="525" x="398.3924">t</tspan></text>
<text xml:space="preserve" transform="matrix(.7033588 0 0 .7033588 19.5023 13.5)" font-size="29" font-family="PingFangSC"><tspan y="525" x="408.6874">i</tspan></text>
<text xml:space="preserve" transform="matrix(.7033588 0 0 .7033588 19.5023 13.5)" font-size="29" font-family="PingFangSC"><tspan y="525" x="416.1113">a</tspan></text>
<text xml:space="preserve" transform="matrix(.7033588 0 0 .7033588 19.5023 13.5)" font-size="29" font-family="PingFangSC"><tspan y="525" x="432.3223">l</tspan></text>
<text xml:space="preserve" transform="matrix(.7033588 0 0 .7033588 19.5023 13.5)" font-size="29" font-family="PingFangSC"><tspan y="560" x="331.5625">A</tspan></text>
<text xml:space="preserve" transform="matrix(.7033588 0 0 .7033588 19.5023 13.5)" font-size="29" font-family="PingFangSC"><tspan y="560" x="350.6155">t</tspan></text>
<text xml:space="preserve" transform="matrix(.7033588 0 0 .7033588 19.5023 13.5)" font-size="29" font-family="PingFangSC"><tspan y="560" x="360.9105">t</tspan></text>
<text xml:space="preserve" transform="matrix(.7033588 0 0 .7033588 19.5023 13.5)" font-size="29" font-family="PingFangSC"><tspan y="560" x="371.2055">e</tspan></text>
<text xml:space="preserve" transform="matrix(.7033588 0 0 .7033588 19.5023 13.5)" font-size="29" font-family="PingFangSC"><tspan y="560" x="387.3005">n</tspan></text>
<text xml:space="preserve" transform="matrix(.7033588 0 0 .7033588 19.5023 13.5)" font-size="29" font-family="PingFangSC"><tspan y="560" x="403.5115">t</tspan></text>
<text xml:space="preserve" transform="matrix(.7033588 0 0 .7033588 19.5023 13.5)" font-size="29" font-family="PingFangSC"><tspan y="560" x="413.8065">i</tspan></text>
<text xml:space="preserve" transform="matrix(.7033588 0 0 .7033588 19.5023 13.5)" font-size="29" font-family="PingFangSC"><tspan y="560" x="421.2305">o</tspan></text>
<text xml:space="preserve" transform="matrix(.7033588 0 0 .7033588 19.5023 13.5)" font-size="29" font-family="PingFangSC"><tspan y="560" x="438.2245">n</tspan></text>
<path transform="matrix(.7033588,0,0,.7033588,19.85398,13.852051)" stroke-width="5" stroke-linecap="butt" stroke-miterlimit="10" stroke-linejoin="miter" fill="none" stroke="#000000" d="M393 624V590.84"/>
<path transform="matrix(1,0,0,-1,0,1191.12)" d="M296.274 767.4985 298.8553 759.7616 296.274 761.6958 293.6926 759.7616 296.274 767.4985Z"/>
<path transform="matrix(.7033588,0,0,.7033588,19.85398,13.852051)" stroke-width="5" stroke-linecap="butt" stroke-miterlimit="10" stroke-linejoin="miter" fill="none" stroke="#000000" d="M393 582.59 396.67 593.59 393 590.84 389.33 593.59 393 582.59Z"/>
<path transform="matrix(1,0,0,-1,0,1191.12)" d="M235.1521 738.3724H357.3959C357.7699 738.3724 358.1404 738.336 358.5073 738.263 358.8742 738.19 359.2305 738.082 359.5761 737.9388 359.9217 737.7956 360.25 737.6201 360.561 737.4123 360.8721 737.2045 361.1598 736.9683 361.4244 736.7038 361.6889 736.4393 361.9251 736.1515 362.1329 735.8405 362.3407 735.5295 362.5162 735.2011 362.6594 734.8556 362.8025 734.5099 362.9106 734.1537 362.9836 733.7868 363.0566 733.4199 363.093 733.0493 363.0931 732.6753V680.7673C363.093 680.3933 363.0566 680.0228 362.9836 679.656 362.9106 679.2891 362.8025 678.9328 362.6594 678.5872 362.5162 678.2416 362.3407 677.9133 362.1329 677.6022 361.9251 677.2912 361.6889 677.0034 361.4244 676.7389 361.1598 676.4743 360.8721 676.2382 360.561 676.0304 360.25 675.8225 359.9217 675.647 359.5761 675.5039 359.2305 675.3607 358.8742 675.2526 358.5073 675.1797 358.1404 675.1067 357.7699 675.0702 357.3959 675.0702H235.1521C234.778 675.0702 234.4075 675.1067 234.0406 675.1797 233.6737 675.2526 233.3175 675.3607 232.9718 675.5039 232.6262 675.647 232.2979 675.8225 231.9869 676.0304 231.6758 676.2382 231.3881 676.4743 231.1236 676.7389 230.859 677.0034 230.6229 677.2912 230.415 677.6022 230.2072 677.9133 230.0317 678.2416 229.8886 678.5872 229.7454 678.9328 229.6373 679.2891 229.5643 679.656 229.4914 680.0228 229.4549 680.3933 229.4549 680.7673V732.6753C229.4549 733.0493 229.4914 733.4199 229.5643 733.7868 229.6373 734.1537 229.7454 734.5099 229.8886 734.8556 230.0317 735.2011 230.2072 735.5295 230.415 735.8405 230.6229 736.1515 230.859 736.4393 231.1236 736.7038 231.3881 736.9683 231.6758 737.2045 231.9869 737.4123 232.2979 737.6201 232.6262 737.7956 232.9718 737.9388 233.3175 738.082 233.6737 738.19 234.0406 738.263 234.4075 738.336 234.778 738.3724 235.1521 738.3724Z" fill="#c1e8f7"/>
<path transform="matrix(.7033588,0,0,.7033588,19.85398,13.852051)" stroke-width="5" stroke-linecap="butt" stroke-miterlimit="4" stroke-linejoin="miter" fill="none" stroke="#000000" d="M306.1 624H479.9C480.4318 624 480.9586 624.0519 481.4802 624.1556 482.0018 624.2593 482.5084 624.413 482.9997 624.6165 483.4911 624.8201 483.9579 625.0696 484.4001 625.365 484.8423 625.6605 485.2514 625.9963 485.6275 626.3724 486.0036 626.7485 486.3394 627.1576 486.6349 627.5997 486.9304 628.042 487.1799 628.5088 487.3834 629.0001 487.5869 629.4915 487.7406 629.998 487.8443 630.5196 487.9481 631.0413 488 631.5681 488 632.1V705.9C488 706.4318 487.9481 706.9586 487.8443 707.4801 487.7406 708.0018 487.5869 708.5082 487.3834 708.9996 487.1799 709.491 486.9304 709.9578 486.6349 710.4 486.3394 710.8422 486.0036 711.2514 485.6275 711.6275 485.2514 712.0036 484.8423 712.3394 484.4001 712.6348 483.9579 712.9303 483.4911 713.1798 482.9997 713.3834 482.5084 713.5869 482.0018 713.7405 481.4802 713.8443 480.9586 713.9481 480.4318 713.9999 479.9 714H306.1C305.5682 713.9999 305.0414 713.9481 304.5198 713.8443 303.9981 713.7405 303.4916 713.5869 303.0002 713.3834 302.5088 713.1798 302.042 712.9303 301.5999 712.6348 301.1576 712.3394 300.7485 712.0036 300.3724 711.6275 299.9963 711.2514 299.6606 710.8422 299.365 710.4 299.0696 709.9578 298.8201 709.491 298.6166 708.9996 298.413 708.5082 298.2593 708.0018 298.1556 707.4801 298.0519 706.9586 298 706.4318 298 705.9V632.1C298 631.5681 298.0519 631.0413 298.1556 630.5196 298.2593 629.998 298.413 629.4915 298.6166 629.0001 298.8201 628.5088 299.0696 628.042 299.365 627.5997 299.6606 627.1576 299.9963 626.7485 300.3724 626.3724 300.7485 625.9963 301.1576 625.6605 301.5999 625.365 302.042 625.0696 302.5088 624.8201 303.0002 624.6165 303.4916 624.413 303.9981 624.2593 304.5197 624.1556 305.0414 624.0519 305.5682 624 306.1 624Z"/>
<text xml:space="preserve" transform="matrix(.7033588 0 0 .7033588 19.5023 13.5)" font-size="29" font-family="PingFangSC"><tspan y="662" x="337.3906">S</tspan></text>
<text xml:space="preserve" transform="matrix(.7033588 0 0 .7033588 19.5023 13.5)" font-size="29" font-family="PingFangSC"><tspan y="662" x="355.7186">p</tspan></text>
<text xml:space="preserve" transform="matrix(.7033588 0 0 .7033588 19.5023 13.5)" font-size="29" font-family="PingFangSC"><tspan y="662" x="372.7126">e</tspan></text>
<text xml:space="preserve" transform="matrix(.7033588 0 0 .7033588 19.5023 13.5)" font-size="29" font-family="PingFangSC"><tspan y="662" x="388.8076">c</tspan></text>
<text xml:space="preserve" transform="matrix(.7033588 0 0 .7033588 19.5023 13.5)" font-size="29" font-family="PingFangSC"><tspan y="662" x="404.6706">t</tspan></text>
<text xml:space="preserve" transform="matrix(.7033588 0 0 .7033588 19.5023 13.5)" font-size="29" font-family="PingFangSC"><tspan y="662" x="414.9656">r</tspan></text>
<text xml:space="preserve" transform="matrix(.7033588 0 0 .7033588 19.5023 13.5)" font-size="29" font-family="PingFangSC"><tspan y="662" x="425.5506">a</tspan></text>
<text xml:space="preserve" transform="matrix(.7033588 0 0 .7033588 19.5023 13.5)" font-size="29" font-family="PingFangSC"><tspan y="662" x="441.7616">l</tspan></text>
<text xml:space="preserve" transform="matrix(.7033588 0 0 .7033588 19.5023 13.5)" font-size="29" font-family="PingFangSC"><tspan y="697" x="312.2969">P</tspan></text>
<text xml:space="preserve" transform="matrix(.7033588 0 0 .7033588 19.5023 13.5)" font-size="29" font-family="PingFangSC"><tspan y="697" x="330.9149">o</tspan></text>
<text xml:space="preserve" transform="matrix(.7033588 0 0 .7033588 19.5023 13.5)" font-size="29" font-family="PingFangSC"><tspan y="697" x="347.9089">o</tspan></text>
<text xml:space="preserve" transform="matrix(.7033588 0 0 .7033588 19.5023 13.5)" font-size="29" font-family="PingFangSC"><tspan y="697" x="364.9029">l</tspan></text>
<text xml:space="preserve" transform="matrix(.7033588 0 0 .7033588 19.5023 13.5)" font-size="29" font-family="PingFangSC"><tspan y="697" x="371.7178"> </tspan></text>
<text xml:space="preserve" transform="matrix(.7033588 0 0 .7033588 19.5023 13.5)" font-size="29" font-family="PingFangSC"><tspan y="697" x="381.3748">&#x0026;</tspan></text>
<text xml:space="preserve" transform="matrix(.7033588 0 0 .7033588 19.5023 13.5)" font-size="29" font-family="PingFangSC"><tspan y="697" x="402.4288"> </tspan></text>
<text xml:space="preserve" transform="matrix(.7033588 0 0 .7033588 19.5023 13.5)" font-size="29" font-family="PingFangSC"><tspan y="697" x="412.0858">P</tspan></text>
<text xml:space="preserve" transform="matrix(.7033588 0 0 .7033588 19.5023 13.5)" font-size="29" font-family="PingFangSC"><tspan y="697" x="430.7038">r</tspan></text>
<text xml:space="preserve" transform="matrix(.7033588 0 0 .7033588 19.5023 13.5)" font-size="29" font-family="PingFangSC"><tspan y="697" x="441.2888">o</tspan></text>
<text xml:space="preserve" transform="matrix(.7033588 0 0 .7033588 19.5023 13.5)" font-size="29" font-family="PingFangSC"><tspan y="697" x="458.2828">j</tspan></text>
<text xml:space="preserve" transform="matrix(.7033588 0 0 .7033588 19.5023 13.5)" font-size="29" font-family="PingFangSC"><tspan y="697" x="466.0258">.</tspan></text>
<path transform="matrix(.7033588,0,0,.7033588,19.85398,13.852051)" stroke-width="5" stroke-linecap="butt" stroke-miterlimit="10" stroke-linejoin="miter" fill="none" stroke="#000000" d="M348 590.84V598.92C348 604.3066 351.3333 607 358 607H428C434.6667 607 438 604.3066 438 598.92V590.84"/>
<path transform="matrix(1,0,0,-1,0,1191.12)" d="M264.6228 767.4985 267.2042 759.7616 264.6228 761.6958 262.0415 759.7616 264.6228 767.4985Z"/>
<path transform="matrix(.7033588,0,0,.7033588,19.85398,13.852051)" stroke-width="5" stroke-linecap="butt" stroke-miterlimit="10" stroke-linejoin="miter" fill="none" stroke="#000000" d="M348 582.59 351.67 593.59 348 590.84 344.33 593.59 348 582.59Z"/>
<path transform="matrix(1,0,0,-1,0,1191.12)" d="M327.9251 767.4985 330.5065 759.7616 327.9251 761.6958 325.3438 759.7616 327.9251 767.4985Z"/>
<path transform="matrix(.7033588,0,0,.7033588,19.85398,13.852051)" stroke-width="5" stroke-linecap="butt" stroke-miterlimit="10" stroke-linejoin="miter" fill="none" stroke="#000000" d="M438 582.59 441.67 593.59 438 590.84 434.33 593.59 438 582.59Z"/>
<path transform="matrix(.7033588,0,0,.7033588,19.85398,13.852051)" stroke-width="5" stroke-linecap="butt" stroke-miterlimit="10" stroke-linejoin="miter" fill="none" stroke="#000000" d="M289 827V787.5 747"/>
<path transform="matrix(1,0,0,-1,0,1191.12)" d="M140.902 595.5906H305.3473C305.7214 595.5906 306.0919 595.5541 306.4588 595.4812 306.8257 595.4082 307.1819 595.3002 307.5275 595.157 307.8731 595.0138 308.2014 594.8384 308.5125 594.6305 308.8235 594.4227 309.1113 594.1865 309.3758 593.922 309.6403 593.6575 309.8765 593.3697 310.0843 593.0587 310.2922 592.7476 310.4676 592.4193 310.6108 592.0737 310.7539 591.7281 310.862 591.3718 310.935 591.0049 311.008 590.638 311.0445 590.2675 311.0445 589.8934V537.9855C311.0445 537.6115 311.008 537.241 310.935 536.8741 310.862 536.5072 310.7539 536.151 310.6108 535.8054 310.4676 535.4597 310.2922 535.1314 310.0843 534.8204 309.8765 534.5093 309.6403 534.2215 309.3758 533.957 309.1113 533.6925 308.8235 533.4563 308.5125 533.2485 308.2014 533.0407 307.8731 532.8652 307.5275 532.722 307.1819 532.5789 306.8256 532.4708 306.4587 532.3978 306.0919 532.3248 305.7214 532.2883 305.3473 532.2883H140.902C140.5279 532.2883 140.1575 532.3248 139.7906 532.3978 139.4236 532.4708 139.0674 532.5789 138.7218 532.7221 138.3762 532.8652 138.0478 533.0407 137.7368 533.2485 137.4258 533.4563 137.138 533.6925 136.8735 533.957 136.609 534.2215 136.3728 534.5093 136.165 534.8203 135.9571 535.1314 135.7816 535.4597 135.6385 535.8054 135.4953 536.151 135.3873 536.5072 135.3143 536.8741 135.2413 537.241 135.2048 537.6115 135.2048 537.9855V589.8934C135.2048 590.2675 135.2413 590.638 135.3143 591.005 135.3873 591.3719 135.4953 591.7281 135.6385 592.0737 135.7816 592.4194 135.9571 592.7476 136.165 593.0587 136.3728 593.3697 136.609 593.6575 136.8735 593.922 137.138 594.1865 137.4258 594.4227 137.7368 594.6305 138.0479 594.8384 138.3762 595.0138 138.7218 595.157 139.0674 595.3002 139.4237 595.4082 139.7906 595.4811 140.1575 595.5541 140.5279 595.5906 140.902 595.5906Z" fill="#fce0e1"/>
<path transform="matrix(.7033588,0,0,.7033588,19.85398,13.852051)" stroke-width="5" stroke-linecap="butt" stroke-miterlimit="4" stroke-linejoin="miter" fill="none" stroke="#000000" d="M172.1 827H405.9C406.4318 827 406.9586 827.0519 407.4802 827.1556 408.0019 827.2593 408.5083 827.4129 408.9997 827.6165 409.4911 827.82 409.9579 828.0695 410.4001 828.365 410.8423 828.6605 411.2515 828.9963 411.6275 829.3724 412.0036 829.7485 412.3394 830.1576 412.6349 830.5998 412.9303 831.042 413.1798 831.5088 413.3834 832.0002 413.5869 832.4915 413.7405 832.998 413.8443 833.5198 413.9481 834.0414 414 834.5681 414 835.1V908.9C414 909.4318 413.9481 909.9586 413.8443 910.4802 413.7405 911.0018 413.5869 911.5083 413.3834 911.9996 413.1798 912.491 412.9303 912.9578 412.6349 913.4 412.3394 913.8423 412.0036 914.2515 411.6275 914.6275 411.2515 915.0035 410.8423 915.3394 410.4 915.6348 409.9579 915.9303 409.4911 916.1798 408.9997 916.3834 408.5083 916.5869 408.0018 916.7405 407.4802 916.8443 406.9586 916.9481 406.4318 917 405.9 917H172.1C171.5682 917 171.0414 916.9481 170.5198 916.8443 169.9981 916.7405 169.4916 916.5868 169.0002 916.3833 168.5089 916.1798 168.0421 915.9303 167.5999 915.6348 167.1576 915.3394 166.7485 915.0035 166.3724 914.6275 165.9963 914.2515 165.6606 913.8423 165.3651 913.4001 165.0696 912.9579 164.8201 912.491 164.6166 911.9996 164.413 911.5083 164.2594 911.0018 164.1556 910.4802 164.0519 909.9586 164 909.4318 164 908.9V835.1C164 834.5681 164.0519 834.0413 164.1556 833.5196 164.2594 832.998 164.413 832.4915 164.6166 832.0001 164.8201 831.5087 165.0696 831.042 165.3651 830.5998 165.6606 830.1576 165.9963 829.7485 166.3724 829.3724 166.7485 828.9963 167.1576 828.6605 167.5999 828.365 168.0421 828.0695 168.5089 827.82 169.0003 827.6165 169.4916 827.413 169.9981 827.2593 170.5198 827.1556 171.0414 827.0519 171.5682 827 172.1 827Z"/>
<text xml:space="preserve" transform="matrix(.7033588 0 0 .7033588 19.5023 13.5)" font-size="29" font-family="PingFangSC"><tspan y="865" x="178.4844">S</tspan></text>
<text xml:space="preserve" transform="matrix(.7033588 0 0 .7033588 19.5023 13.5)" font-size="29" font-family="PingFangSC"><tspan y="865" x="196.8124">p</tspan></text>
<text xml:space="preserve" transform="matrix(.7033588 0 0 .7033588 19.5023 13.5)" font-size="29" font-family="PingFangSC"><tspan y="865" x="213.8064">a</tspan></text>
<text xml:space="preserve" transform="matrix(.7033588 0 0 .7033588 19.5023 13.5)" font-size="29" font-family="PingFangSC"><tspan y="865" x="230.0174">t</tspan></text>
<text xml:space="preserve" transform="matrix(.7033588 0 0 .7033588 19.5023 13.5)" font-size="29" font-family="PingFangSC"><tspan y="865" x="240.3124">i</tspan></text>
<text xml:space="preserve" transform="matrix(.7033588 0 0 .7033588 19.5023 13.5)" font-size="29" font-family="PingFangSC"><tspan y="865" x="247.7363">a</tspan></text>
<text xml:space="preserve" transform="matrix(.7033588 0 0 .7033588 19.5023 13.5)" font-size="29" font-family="PingFangSC"><tspan y="865" x="263.9473">l</tspan></text>
<text xml:space="preserve" transform="matrix(.7033588 0 0 .7033588 19.5023 13.5)" font-size="29" font-family="PingFangSC"><tspan y="865" x="270.7623">-</tspan></text>
<text xml:space="preserve" transform="matrix(.7033588 0 0 .7033588 19.5023 13.5)" font-size="29" font-family="PingFangSC"><tspan y="865" x="288.3073">S</tspan></text>
<text xml:space="preserve" transform="matrix(.7033588 0 0 .7033588 19.5023 13.5)" font-size="29" font-family="PingFangSC"><tspan y="865" x="306.6353">p</tspan></text>
<text xml:space="preserve" transform="matrix(.7033588 0 0 .7033588 19.5023 13.5)" font-size="29" font-family="PingFangSC"><tspan y="865" x="323.6293">e</tspan></text>
<text xml:space="preserve" transform="matrix(.7033588 0 0 .7033588 19.5023 13.5)" font-size="29" font-family="PingFangSC"><tspan y="865" x="339.7243">c</tspan></text>
<text xml:space="preserve" transform="matrix(.7033588 0 0 .7033588 19.5023 13.5)" font-size="29" font-family="PingFangSC"><tspan y="865" x="355.5873">t</tspan></text>
<text xml:space="preserve" transform="matrix(.7033588 0 0 .7033588 19.5023 13.5)" font-size="29" font-family="PingFangSC"><tspan y="865" x="365.8823">r</tspan></text>
<text xml:space="preserve" transform="matrix(.7033588 0 0 .7033588 19.5023 13.5)" font-size="29" font-family="PingFangSC"><tspan y="865" x="376.4673">a</tspan></text>
<text xml:space="preserve" transform="matrix(.7033588 0 0 .7033588 19.5023 13.5)" font-size="29" font-family="PingFangSC"><tspan y="865" x="392.6783">l</tspan></text>
<text xml:space="preserve" transform="matrix(.7033588 0 0 .7033588 19.5023 13.5)" font-size="29" font-family="PingFangSC"><tspan y="900" x="240.3594">T</tspan></text>
<text xml:space="preserve" transform="matrix(.7033588 0 0 .7033588 19.5023 13.5)" font-size="29" font-family="PingFangSC"><tspan y="900" x="258.3104">o</tspan></text>
<text xml:space="preserve" transform="matrix(.7033588 0 0 .7033588 19.5023 13.5)" font-size="29" font-family="PingFangSC"><tspan y="900" x="275.3044">k</tspan></text>
<text xml:space="preserve" transform="matrix(.7033588 0 0 .7033588 19.5023 13.5)" font-size="29" font-family="PingFangSC"><tspan y="900" x="290.6453">e</tspan></text>
<text xml:space="preserve" transform="matrix(.7033588 0 0 .7033588 19.5023 13.5)" font-size="29" font-family="PingFangSC"><tspan y="900" x="306.7403">n</tspan></text>
<text xml:space="preserve" transform="matrix(.7033588 0 0 .7033588 19.5023 13.5)" font-size="29" font-family="PingFangSC"><tspan y="900" x="322.9513">s</tspan></text>
<path transform="matrix(1,0,0,-1,0,1191.12)" d="M140.902 1172.345H305.3473C305.7214 1172.345 306.0919 1172.308 306.4588 1172.235 306.8257 1172.162 307.1819 1172.054 307.5275 1171.911 307.8731 1171.768 308.2014 1171.592 308.5125 1171.385 308.8235 1171.177 309.1113 1170.941 309.3758 1170.676 309.6403 1170.412 309.8765 1170.124 310.0843 1169.813 310.2922 1169.502 310.4676 1169.173 310.6108 1168.828 310.7539 1168.482 310.862 1168.126 310.935 1167.759 311.008 1167.392 311.0445 1167.022 311.0445 1166.648V1114.74C311.0445 1114.366 311.008 1113.995 310.935 1113.628 310.862 1113.261 310.7539 1112.905 310.6108 1112.56 310.4676 1112.214 310.2922 1111.886 310.0843 1111.575 309.8765 1111.263 309.6403 1110.976 309.3758 1110.711 309.1113 1110.447 308.8235 1110.211 308.5125 1110.003 308.2014 1109.795 307.8731 1109.619 307.5275 1109.476 307.1819 1109.333 306.8256 1109.225 306.4587 1109.152 306.0919 1109.079 305.7214 1109.043 305.3473 1109.043H140.902C140.5279 1109.043 140.1575 1109.079 139.7906 1109.152 139.4236 1109.225 139.0674 1109.333 138.7218 1109.476 138.3762 1109.619 138.0478 1109.795 137.7368 1110.003 137.4258 1110.211 137.138 1110.447 136.8735 1110.711 136.609 1110.976 136.3728 1111.263 136.165 1111.575 135.9571 1111.886 135.7816 1112.214 135.6385 1112.56 135.4953 1112.905 135.3873 1113.261 135.3143 1113.628 135.2413 1113.995 135.2048 1114.366 135.2048 1114.74V1166.648C135.2048 1167.022 135.2413 1167.392 135.3143 1167.759 135.3873 1168.126 135.4953 1168.482 135.6385 1168.828 135.7816 1169.173 135.9571 1169.502 136.165 1169.813 136.3728 1170.124 136.609 1170.412 136.8735 1170.676 137.138 1170.941 137.4258 1171.177 137.7368 1171.385 138.0479 1171.592 138.3762 1171.768 138.7218 1171.911 139.0674 1172.054 139.4237 1172.162 139.7906 1172.235 140.1575 1172.308 140.5279 1172.345 140.902 1172.345Z" fill="#fce0e1"/>
<path transform="matrix(.7033588,0,0,.7033588,19.85398,13.852051)" stroke-width="5" stroke-linecap="butt" stroke-miterlimit="4" stroke-linejoin="miter" fill="none" stroke="#000000" d="M172.1 7H405.9C406.4318 7 406.9586 7.05188 407.4802 7.155639 408.0019 7.259399 408.5083 7.413044 408.9997 7.616575 409.4911 7.820106 409.9579 8.069614 410.4001 8.365095 410.8423 8.660577 411.2515 8.996357 411.6275 9.372435 412.0036 9.748511 412.3394 10.15766 412.6349 10.59988 412.9303 11.0421 413.1798 11.50889 413.3834 12.00026 413.5869 12.49163 413.7405 12.99813 413.8443 13.51977 413.9481 14.0414 414 14.56815 414 15.1V88.9C414 89.43185 413.9481 89.95859 413.8443 90.48023 413.7405 91.00186 413.5869 91.50835 413.3834 91.99972 413.1798 92.49109 412.9303 92.95788 412.6349 93.4001 412.3394 93.84232 412.0036 94.25147 411.6275 94.62756 411.2515 95.00363 410.8423 95.33941 410.4 95.63489 409.9579 95.93037 409.4911 96.17988 408.9997 96.38341 408.5083 96.58694 408.0018 96.74059 407.4802 96.84435 406.9586 96.94812 406.4318 97 405.9 97H172.1C171.5682 97 171.0414 96.94812 170.5198 96.84436 169.9981 96.74059 169.4916 96.58694 169.0002 96.38341 168.5089 96.17988 168.0421 95.93037 167.5999 95.63489 167.1576 95.33941 166.7485 95.00363 166.3724 94.62756 165.9963 94.25147 165.6606 93.84232 165.3651 93.4001 165.0696 92.95788 164.8201 92.49109 164.6166 91.99972 164.413 91.50835 164.2594 91.00186 164.1556 90.48023 164.0519 89.95859 164 89.43185 164 88.9V15.1C164 14.56815 164.0519 14.0414 164.1556 13.51977 164.2594 12.99813 164.413 12.49163 164.6166 12.00026 164.8201 11.50889 165.0696 11.0421 165.3651 10.59988 165.6606 10.15766 165.9963 9.748511 166.3724 9.372435 166.7485 8.996357 167.1576 8.660577 167.5999 8.365095 168.0421 8.069614 168.5089 7.820106 169.0003 7.616575 169.4916 7.413043 169.9981 7.259398 170.5198 7.155639 171.0414 7.051879 171.5682 7 172.1 7Z"/>
<text xml:space="preserve" transform="matrix(.7033588 0 0 .7033588 19.5023 13.5)" font-size="29" font-family="PingFangSC"><tspan y="45" x="178.4844">S</tspan></text>
<text xml:space="preserve" transform="matrix(.7033588 0 0 .7033588 19.5023 13.5)" font-size="29" font-family="PingFangSC"><tspan y="45" x="196.8124">p</tspan></text>
<text xml:space="preserve" transform="matrix(.7033588 0 0 .7033588 19.5023 13.5)" font-size="29" font-family="PingFangSC"><tspan y="45" x="213.8064">a</tspan></text>
<text xml:space="preserve" transform="matrix(.7033588 0 0 .7033588 19.5023 13.5)" font-size="29" font-family="PingFangSC"><tspan y="45" x="230.0174">t</tspan></text>
<text xml:space="preserve" transform="matrix(.7033588 0 0 .7033588 19.5023 13.5)" font-size="29" font-family="PingFangSC"><tspan y="45" x="240.3124">i</tspan></text>
<text xml:space="preserve" transform="matrix(.7033588 0 0 .7033588 19.5023 13.5)" font-size="29" font-family="PingFangSC"><tspan y="45" x="247.7363">a</tspan></text>
<text xml:space="preserve" transform="matrix(.7033588 0 0 .7033588 19.5023 13.5)" font-size="29" font-family="PingFangSC"><tspan y="45" x="263.9473">l</tspan></text>
<text xml:space="preserve" transform="matrix(.7033588 0 0 .7033588 19.5023 13.5)" font-size="29" font-family="PingFangSC"><tspan y="45" x="270.7623">-</tspan></text>
<text xml:space="preserve" transform="matrix(.7033588 0 0 .7033588 19.5023 13.5)" font-size="29" font-family="PingFangSC"><tspan y="45" x="288.3073">S</tspan></text>
<text xml:space="preserve" transform="matrix(.7033588 0 0 .7033588 19.5023 13.5)" font-size="29" font-family="PingFangSC"><tspan y="45" x="306.6353">p</tspan></text>
<text xml:space="preserve" transform="matrix(.7033588 0 0 .7033588 19.5023 13.5)" font-size="29" font-family="PingFangSC"><tspan y="45" x="323.6293">e</tspan></text>
<text xml:space="preserve" transform="matrix(.7033588 0 0 .7033588 19.5023 13.5)" font-size="29" font-family="PingFangSC"><tspan y="45" x="339.7243">c</tspan></text>
<text xml:space="preserve" transform="matrix(.7033588 0 0 .7033588 19.5023 13.5)" font-size="29" font-family="PingFangSC"><tspan y="45" x="355.5873">t</tspan></text>
<text xml:space="preserve" transform="matrix(.7033588 0 0 .7033588 19.5023 13.5)" font-size="29" font-family="PingFangSC"><tspan y="45" x="365.8823">r</tspan></text>
<text xml:space="preserve" transform="matrix(.7033588 0 0 .7033588 19.5023 13.5)" font-size="29" font-family="PingFangSC"><tspan y="45" x="376.4673">a</tspan></text>
<text xml:space="preserve" transform="matrix(.7033588 0 0 .7033588 19.5023 13.5)" font-size="29" font-family="PingFangSC"><tspan y="45" x="392.6783">l</tspan></text>
<text xml:space="preserve" transform="matrix(.7033588 0 0 .7033588 19.5023 13.5)" font-size="29" font-family="PingFangSC"><tspan y="80" x="240.3594">T</tspan></text>
<text xml:space="preserve" transform="matrix(.7033588 0 0 .7033588 19.5023 13.5)" font-size="29" font-family="PingFangSC"><tspan y="80" x="258.3104">o</tspan></text>
<text xml:space="preserve" transform="matrix(.7033588 0 0 .7033588 19.5023 13.5)" font-size="29" font-family="PingFangSC"><tspan y="80" x="275.3044">k</tspan></text>
<text xml:space="preserve" transform="matrix(.7033588 0 0 .7033588 19.5023 13.5)" font-size="29" font-family="PingFangSC"><tspan y="80" x="290.6453">e</tspan></text>
<text xml:space="preserve" transform="matrix(.7033588 0 0 .7033588 19.5023 13.5)" font-size="29" font-family="PingFangSC"><tspan y="80" x="306.7403">n</tspan></text>
<text xml:space="preserve" transform="matrix(.7033588 0 0 .7033588 19.5023 13.5)" font-size="29" font-family="PingFangSC"><tspan y="80" x="322.9513">s</tspan></text>
<path transform="matrix(.7033588,0,0,.7033588,19.85398,13.852051)" stroke-width="5" stroke-linecap="butt" stroke-miterlimit="10" stroke-linejoin="miter" fill="none" stroke="#000000" d="M289 157V110.84"/>
<path transform="matrix(1,0,0,-1,0,1191.12)" d="M223.1247 1105.111 225.706 1097.374 223.1247 1099.308 220.5433 1097.374 223.1247 1105.111Z"/>
<path transform="matrix(.7033588,0,0,.7033588,19.85398,13.852051)" stroke-width="5" stroke-linecap="butt" stroke-miterlimit="10" stroke-linejoin="miter" fill="none" stroke="#000000" d="M289 102.59 292.67 113.59 289 110.84 285.33 113.59 289 102.59Z"/>
</g>
</g>
</g>
</svg>
